<svg xmlns="http://www.w3.org/2000/svg" viewBox="0 0 1000 1000"><path d="M454.14 11.57c-94.55 8.44-193.71 49.48-266.78 110.66-24.17 20.14-61.18 58.69-78.44 81.51-51.79 69.05-83.82 147.49-96.48 236.29-3.26 22.63-3.26 98.2 0 120.83 13.43 93.59 49.29 177.98 105.29 247.41 20.14 24.93 61.56 65.21 85.92 83.62 68.47 51.21 147.29 83.43 235.9 96.09 22.63 3.26 98.2 3.26 120.83 0 89.18-12.66 166.86-44.5 236.48-96.66 22.82-17.07 65.02-57.92 83.81-81.13 47.56-58.5 85.16-137.13 99.54-208.09 8.25-40.66 9.78-56.58 9.78-101.65 0-44.88-1.53-60.6-9.78-101.27-14-70.39-51.21-148.45-98.01-206.56-20.14-24.93-61.56-65.21-85.92-83.62C697.52 34.97 577.27.64 454.14 11.57zm115.84 23.59C672.2 51.46 764.65 99.03 835.8 171.91c37.02 37.78 62.14 73.26 85.92 121.4 30.3 61.18 45.26 121.02 47.56 191.02 1.72 55.04-4.22 102.61-19.56 152.86-31.26 103.38-98.2 193.52-188.91 254.31-82.09 55.04-176.06 81.51-276.94 78.25-70-2.3-129.84-17.26-191.02-47.56-77.29-38.36-139.05-92.83-186.61-164.75-36.07-54.66-62.72-126-72.7-194.67-3.83-26.27-3.26-103.95.96-130.41 16.3-104.33 62.91-195.63 136.94-267.74 78.83-77.1 174.15-121.21 287.3-132.91 17.46-1.73 92.83.57 111.24 3.45z"/><path d="M238.95 300.79c-5.56 5.56-5.75 6.33-5.18 20.71l.57 14.96 10.16.58 9.97.58v-21.29h21.29l-.58-10.17-.57-9.97-14.96-.58c-14.37-.57-15.14-.38-20.7 5.18zm57.15-4.41c-.77.77-1.34 5.56-1.34 10.74v9.21h42.39l-.58-10.17-.58-9.97-19.37-.58c-10.54-.19-19.75 0-20.52.77zm61.38 0c-.77.77-1.34 5.56-1.34 10.74v9.21h42.39l-.58-10.17-.58-9.97-19.37-.58c-10.55-.19-19.76 0-20.52.77zm61.37 0c-.77.77-1.34 5.56-1.34 10.74v9.21h42.39l-.58-10.17-.57-9.97-19.37-.58c-10.56-.19-19.76 0-20.53.77zm61.37 0c-.77.77-1.34 5.56-1.34 10.74v9.21h42.39l-.58-10.17-.58-9.97-19.37-.58c-10.54-.19-19.75 0-20.52.77zm61.37 0c-.77.77-1.34 5.56-1.34 10.74v9.21h42.39l-.58-10.17-.58-9.97-19.37-.58c-10.54-.19-19.75 0-20.52.77zm61.38 0c-.77.77-1.34 5.56-1.34 10.74v9.21h42.39l-.58-10.17-.58-9.97-19.37-.58c-10.55-.19-19.76 0-20.52.77zm61.37 0c-.77.77-1.34 5.56-1.34 10.74v9.21h42.39l-.58-10.17-.58-9.97-19.37-.58c-10.55-.19-19.75 0-20.52.77zm61.37.19c-.77.58-1.34 5.37-1.34 10.55v9.21h21.1v21.29l10.16-.58 9.97-.58.58-14.96c.57-14.38.38-15.15-5.18-20.52-5.18-5.37-6.71-5.75-19.94-5.75-7.68 0-14.77.57-15.35 1.34zm-491.55 62.52c-.57 1.54-.57 10.74-.38 20.71l.57 18.03 10.16.58 9.97.58V356.6h-9.59c-6.32 0-9.97.96-10.73 2.49zm330.64.77c-3.07 3.64-142.11 240.89-145.57 248.75-4.03 8.44 4.99 17.26 13.23 12.85 3.65-1.92 147.49-245.88 149.41-253.36 2.3-8.81-10.93-15.14-17.07-8.24zm180.67 17.84v21.29l10.16-.58 9.97-.58v-40.27l-9.97-.58-10.16-.57v21.29zm-404.68 64.06c-42.77 43.15-46.03 46.6-46.03 50.06 0 2.88 86.5 88.8 90.72 89.95 4.99 1.15 13.23-6.91 11.7-11.7-.77-1.92-18.41-20.71-39.32-41.81l-38.17-38.36 37.59-37.4c20.52-20.52 38.36-38.93 39.32-40.85 1.53-2.49 1.15-4.79-1.15-8.25-6.14-9.59-9.59-7.1-54.66 38.36zM604.5 403.4c-2.3 3.45-2.69 5.75-1.15 8.25.96 1.92 18.79 20.33 39.32 40.85l37.59 37.4-39.32 39.32c-21.67 21.86-39.32 40.66-39.32 41.81 0 4.41 9.01 11.7 13.04 10.74 4.41-1.34 87.46-84.58 89.38-89.76.96-3.07-7.29-12.28-43.35-48.52-46.98-47-50.24-49.3-56.19-40.09zm-370.34 17.07c-.57 1.54-.57 10.74-.38 20.71l.57 18.03 10.16.57 9.97.58v-42.39h-9.59c-6.32 0-9.97.96-10.73 2.5zm511.31 18.6v21.29l10.16-.58 9.97-.57v-40.28l-9.97-.57-10.16-.58v21.29zm-511.31 42.77c-.57 1.54-.57 10.74-.38 20.72l.57 18.03 10.16.58 9.97.58v-42.39h-9.59c-6.32-.01-9.97.94-10.73 2.48zm511.31 18.6v21.29l10.16-.58 9.97-.58V480.3l-9.97-.58-10.16-.57v21.29zm-511.31 42.77c-.57 1.54-.57 10.74-.38 20.71l.57 18.03 10.16.57 9.97.58v-42.39h-9.59c-6.32.01-9.97.97-10.73 2.5zm511.31 18.61v21.29l10.16-.58 9.97-.57v-40.28l-9.97-.58-10.16-.57v21.29zm-511.31 42.76c-.57 1.54-.57 10.74-.38 20.71l.57 18.03 10.16.57 9.97.58v-42.39h-9.59c-6.32.01-9.97.97-10.73 2.5zm511.31 18.61v21.29l10.16-.58 9.97-.57v-40.28l-9.97-.58-10.16-.58v21.3zm-510.74 41.43c-2.88 2.88-1.15 9.4 3.84 14.58 4.79 4.99 6.14 5.37 21.1 5.37h16.11l-.58-10.17-.57-9.97-19.37-.58c-10.56-.19-19.76 0-20.53.77zm61.37 0c-.77.77-1.34 5.56-1.34 10.74v9.21h42.39l-.58-10.16-.58-9.97-19.37-.58c-10.54-.2-19.75-.01-20.52.76zm61.38 0c-.77.77-1.34 5.56-1.34 10.74v9.21h42.39l-.58-10.16-.58-9.97-19.37-.58c-10.55-.2-19.76-.01-20.52.76zm61.37 0c-.77.77-1.34 5.56-1.34 10.74v9.21h42.39l-.58-10.16-.57-9.97-19.37-.58c-10.56-.2-19.76-.01-20.53.76zm61.37 0c-.77.77-1.34 5.56-1.34 10.74v9.21h42.39l-.58-10.16-.58-9.97-19.37-.58c-10.54-.2-19.75-.01-20.52.76zm61.37 0c-.77.77-1.34 5.56-1.34 10.74v9.21h42.39l-.58-10.16-.58-9.97-19.37-.58c-10.54-.2-19.75-.01-20.52.76zm61.38 0c-.77.77-1.34 5.56-1.34 10.74v9.21h42.39l-.58-10.16-.58-9.97-19.37-.58c-10.55-.2-19.76-.01-20.52.76zm61.37 0c-.77.77-1.34 5.56-1.34 10.74v9.21h42.39l-.58-10.16-.58-9.97-19.37-.58c-10.55-.2-19.75-.01-20.52.76zm61.37 0c-.77.77-1.34 5.56-1.34 10.74v9.21h15.92c15.15 0 16.3-.38 21.29-5.56 3.45-3.64 5.18-7.1 4.6-9.97-.58-4.41-1.15-4.6-19.95-5.18-10.54-.2-19.75-.01-20.52.76z"/></svg>