<svg xmlns="http://www.w3.org/2000/svg" viewBox="0 0 1000 1000"><path d="M454.53 11.93c-94.48 8.43-193.57 49.45-266.58 110.58C93.27 201.66 32.52 310.33 14.51 432.22c-9.59 65.35-3.65 144.12 15.52 207.36 23.57 78.19 61.9 143.54 118.63 201.81 43.31 44.46 80.68 71.68 136.07 99.08 48.87 24.15 97.74 38.91 155.24 47.15 22.61 3.26 98.12 3.26 120.74 0 89.12-12.65 166.73-44.46 236.3-96.59 22.81-17.06 64.97-57.88 83.75-81.07 47.72-58.64 84.9-136.46 99.47-207.94 8.24-40.63 9.77-56.34 9.77-101.57 0-44.84-1.53-60.56-9.77-101.19-13.99-70.34-51.17-148.34-97.93-206.41-20.12-24.91-61.52-65.16-85.86-83.56-98.7-73.98-218.87-108.28-341.91-97.36zm99.85 21.85c138.56 16.1 261.6 92.38 339.41 209.86 36.03 54.62 62.86 126.1 72.63 194.52 3.26 22.81 3.26 101.77 0 124.57-12.07 83.94-46.95 165.59-98.13 229.98-74.74 93.91-184.75 156.38-305.68 173.83-22.81 3.26-101.77 3.26-124.57 0-68.42-9.78-139.71-36.41-194.52-72.64C109.95 805.74 30.8 659.32 30.8 500.44c0-105.79 32.2-200.27 98.51-288.43 14.76-19.74 62.86-67.84 82.6-82.6 71.87-54.05 147.95-85.28 231.9-95.63 28.93-3.45 81.25-3.45 110.57 0z"/><path d="M522.76 277.56c-.77.57-1.34 3.64-1.34 6.32 0 7.67-6.32 9.39-38.33 9.97-24.15.57-28.75 1.15-35.65 4.79-10.16 5.37-18.97 14.18-24.34 24.34-4.03 7.47-4.22 9.77-4.22 60.56 0 58.07.96 64.4 12.65 80.3 5.37 7.47 5.56 8.81 5.56 27.41v19.73l-19.74 10.93-19.55 10.73-.96-72.06c-.96-69.18-1.15-72.64-5.37-82.79-12.64-31.43-37.17-53.09-67.07-59.22-41.2-8.62-82.41 12.84-101.57 52.89l-7.09 14.95-.96 93.14-.96 93.33-12.46 8.24c-24.15 16.29-29.32 32.58-28.36 88.92l.57 34.5H827.1l.57-37.37c.19-21.27-.38-41.59-1.53-47.14-3.26-15.91-12.46-29.32-26.83-38.9l-12.46-8.24-.96-93.33c-.96-92.18-.96-93.33-5.37-104.26-9.97-24.53-33.92-47.14-57.5-54.43-15.71-4.98-43.89-4.6-58.26.77-31.24 11.69-55.96 41.2-60.94 73.4-.96 6.9-1.92 40.25-1.92 74.36 0 35.65-.77 61.71-1.73 61.33-.96-.38-9.58-4.98-19.17-10.16l-17.44-9.58v-19.74c0-18.59.19-19.93 5.56-27.41 11.88-16.29 12.65-21.47 12.65-87.01v-59.41l-5.56-12.07c-5.94-12.65-14.95-22.04-25.3-26.45-6.49-2.69-25.85-3.65-28.15-1.34zm28.94 25.29c7.67 7.86 9.97 18.59 9.97 48.1 0 23.38-.19 25.3-3.26 23.96-1.92-.96-18.02-2.11-36.03-2.68-35.46-1.34-38.14-2.11-46.19-12.65-6.52-8.62-14.37-9.2-19.36-1.53-4.02 6.71-14.18 17.82-16.29 17.82-3.07 0-1.73-40.25 1.53-46.95 5.56-11.88 9.78-13.22 43.89-14.37 32.58-1.15 40.82-3.26 49.64-13.22 4.98-5.57 9.39-4.99 16.1 1.52zm-215.61 41.01c14.18 7.09 27.21 19.93 33.54 33.54l5.17 10.92.57 78.58.57 78.77-7.09 3.26c-6.9 3.45-7.09 3.26-13.42-1.53-3.64-2.68-6.9-6.9-7.67-9.39-2.3-9.58.58-42.16 4.6-52.9 3.64-9.2 4.02-14.56 4.22-41.2 0-16.87-.77-31.62-1.53-32.96-.77-1.34-5.18-3.64-9.78-5.17-4.41-1.73-10.73-4.79-13.8-7.09-6.51-4.6-14.37-4.22-28.36.96-6.52 2.49-11.69 2.88-24.15 1.92-14.57-1.15-16.1-.96-19.93 2.88-3.83 3.83-4.02 5.94-4.02 36.03.19 28.36.57 33.35 4.22 42.74 3.45 8.62 4.21 14.57 4.41 32.96 0 21.27-.19 22.61-4.79 27.6-4.79 5.17-20.51 16.1-23.38 16.1-2.3 0-1.92-148.33.57-162.9 2.49-16.1 7.09-26.26 16.29-36.41 15.52-17.06 30.66-23.19 55.58-22.42 14.19.35 19.18 1.5 28.18 5.71zm388.86-.19c21.08 9.77 36.22 29.71 39.86 52.51 2.11 12.84 2.68 163.67.57 163.67-.77 0-7.09-3.45-14.37-7.67-8.43-5.17-13.42-9.39-14.18-12.26-2.3-9.58.57-42.16 4.6-52.9 3.45-9.01 4.03-14.56 4.22-40.44 0-32.96-.19-33.54-13.03-37.76-3.45-1.15-8.82-3.83-11.69-6.13-6.9-4.79-18.78-4.98-25.1-.57-3.83 2.68-8.43 3.26-24.72 2.87-28.36-.38-27.02-2.3-27.02 39.67.19 29.51.57 35.07 4.22 44.27 4.6 12.27 6.51 36.22 3.64 46-1.15 3.83-4.6 9.2-7.67 12.27l-5.56 5.37-7.86-4.22-8.05-4.02.58-77.04.57-77.04 5.17-11.12c9.01-19.17 22.23-31.62 40.63-38.14 14.94-5.37 40.82-4.02 55.19 2.68zm-253.74 39.68c9.97 7.09 24.53 9.77 51.55 9.77 37.75 0 40.25 1.92 38.52 30.66-1.53 25.3-11.88 41.4-34.11 52.13-12.46 6.13-41.2 6.13-53.66 0-13.61-6.71-22.24-14.95-28.18-26.83-4.41-9.2-5.37-13.8-5.94-30.09l-.77-19.17 6.71-3.64c3.64-1.92 9.58-6.33 13.03-9.97 3.45-3.64 6.71-6.52 7.09-6.52.39.01 3.07 1.55 5.76 3.66zm-142.4 37.94l9.2 4.98-1.15 25.11c-.58 16.48-1.92 27.41-3.83 31.81-12.08 27.6-36.22 30.66-50.6 6.32-5.18-8.81-5.37-10.35-5.94-38.52l-.77-29.13 14.18-.19c7.67 0 17.06-1.15 20.7-2.49 3.64-1.53 7.28-2.68 7.86-2.88.77.01 5.37 2.12 10.35 4.99zm387.13 2.88l8.82 4.41-.57 26.83c-.58 23.57-1.15 27.98-4.98 35.84-5.37 10.73-13.03 16.86-23 18.21-10.35 1.34-19.17-5.17-26.26-19.55-5.37-10.73-5.75-13.03-6.32-37.76l-.77-26.45 13.99-.19c7.86 0 17.25-1.15 20.89-2.49 9.19-3.45 8.43-3.64 18.2 1.15zm-241.48 73.01c7.09 2.87 13.99 3.83 25.87 3.83 15.72 0 18.59-.77 38.9-9.2 2.87-1.15 3.26 0 3.26 12.46 0 11.88-.96 15.53-6.13 25.68-5.75 10.54-32.01 39.48-36.03 39.48-3.45 0-30.28-31.05-36.03-41.59-5.17-9.77-6.13-13.61-6.13-24.53 0-11.5.38-12.65 3.45-11.5 1.73.78 7.67 3.27 12.84 5.37zm-175.55 28.56c6.13 1.73 14.37.57 23.38-3.07 2.49-1.15 3.26.38 4.22 9.01 1.15 11.31 6.32 23.19 12.65 28.94l4.03 3.64-7.86 8.43c-9.58 10.35-16.48 24.92-18.21 38.33-1.34 11.5-3.83 13.22-16.86 11.31-16.67-2.49-33.54-15.91-40.44-32.39-4.98-11.88-3.83-15.33 8.24-27.6 11.5-11.5 17.63-23.76 17.63-35.65 0-4.6.57-5.37 3.45-4.22 1.73.78 6.13 2.31 9.77 3.27zm388.67 3.64c5.56 1.72 15.72.38 24.15-3.07 2.68-1.15 3.26-.19 3.26 5.56 0 14.37 8.81 27.79 24.15 36.8l7.86 4.6-1.53 8.82c-4.22 22.23-27.41 41.01-50.41 41.01-8.43 0-9.96-1.72-11.5-12.46-1.53-12.65-10.35-30.85-18.97-39.67l-7.09-7.09 6.52-9.58c3.64-5.17 7.47-13.99 8.82-19.36 1.92-7.86 3.07-9.58 5.56-8.63 1.7.77 5.73 2.11 9.18 3.07zm-262.94 28.56c-5.75 20.12-4.79 25.68 4.79 32.58 8.05 5.75 15.33 4.79 33.54-4.22l16.1-8.05 4.98 4.6 4.79 4.41v97.17h-89.89l-.57-24.53-.57-24.34-9.97-.57-10.16-.57v50.02h-40.24v-36.99c0-20.7.96-40.05 2.11-44.27 3.64-13.22 16.67-23.96 54.43-45.04 18.97-10.54 34.69-18.78 35.07-18.59.38.37-1.73 8.61-4.41 18.39zm183.6 1.15c40.82 22.81 43.89 25.11 50.02 37.56 4.79 9.77 4.98 10.73 4.98 48.87v38.9H623V634.4l-9.97.57-10.16.57-.57 24.34-.57 24.53h-89.89v-97.17l4.79-4.41c5.17-4.98 6.51-4.6 28.17 6.13 12.46 6.13 21.66 6.9 28.36 2.11 11.12-7.67 12.07-13.99 4.79-35.07-2.68-7.67-4.79-14.37-4.79-14.76 0-1.51 4.41.6 35.08 17.85zm-150.64-4.6l6.13 8.43-10.54 5.17c-5.75 2.88-10.35 4.22-10.35 3.07 0-4.22 6.52-26.45 7.67-25.68.57.38 3.83 4.41 7.09 9.01zm103.3 18.2c-.38.38-5.56-1.53-11.5-4.41l-10.93-4.98 5.17-6.9c2.88-4.02 6.13-8.24 7.28-9.77 1.54-1.92 3.07.96 6.33 11.5 2.31 7.67 4.03 14.37 3.65 14.56zm-320.44 22.43c9.58 27.79 36.41 47.15 65.74 47.15h10.16v42.16h-84.32v-21.08h-21.08v21.08H193.7v-30.28c0-29.32.19-30.66 5.37-40.82 4.41-8.82 7.48-11.69 19.55-19.36 7.86-4.98 15.33-9.01 16.29-9.01 1.14-.19 3.63 4.41 5.55 10.16zm540.64-1.54c9.39 5.75 16.48 11.69 19.74 16.67 4.98 7.48 5.18 8.62 5.75 41.01l.77 33.16h-17.64v-21.08h-21.08v21.08h-84.32v-41.59l14.95-.96c18.02-.96 32.58-7.09 45.23-18.78 8.63-8.05 20.31-27.98 20.31-34.88 0-1.92.38-3.45.96-3.45.38.01 7.28 4.03 15.33 8.82z"/><path d="M533.3 615.82c-5.75 5.75-.38 16.86 8.05 16.86 4.98 0 10.73-5.37 10.73-10.16 0-7.47-13.22-12.26-18.78-6.7zm.58 41.77c-5.37 5.94-1.92 14.18 6.13 14.95 4.79.58 6.71-.38 9.39-4.21 2.88-4.6 2.88-5.37 0-9.78-3.83-5.94-10.73-6.32-15.52-.96z"/></svg>