<svg xmlns="http://www.w3.org/2000/svg" viewBox="0 0 1000 1000"><path d="M454.14 11.57c-94.55 8.44-193.71 49.48-266.78 110.66-24.17 20.14-61.18 58.69-78.44 81.51-51.79 69.05-83.82 147.49-96.48 236.29-3.26 22.63-3.26 98.2 0 120.83 13.43 93.59 49.29 177.98 105.29 247.41 20.14 24.93 61.56 65.21 85.92 83.62 68.47 51.21 147.29 83.43 235.9 96.09 22.63 3.26 98.2 3.26 120.83 0 89.18-12.66 166.86-44.5 236.48-96.66 22.82-17.07 65.02-57.92 83.81-81.13 47.56-58.5 85.16-137.13 99.54-208.09 8.25-40.66 9.78-56.58 9.78-101.65 0-44.88-1.53-60.6-9.78-101.27-14-70.39-51.21-148.45-98.01-206.56-20.14-24.93-61.56-65.21-85.92-83.62C697.52 34.97 577.27.64 454.14 11.57zm115.84 23.59C672.2 51.46 764.65 99.03 835.8 171.91c37.02 37.78 62.14 73.26 85.92 121.4 30.3 61.18 45.26 121.02 47.56 191.02 1.72 55.04-4.22 102.61-19.56 152.86-31.26 103.38-98.2 193.52-188.91 254.31-82.09 55.04-176.06 81.51-276.94 78.25-70-2.3-129.84-17.26-191.02-47.56-77.29-38.36-139.05-92.83-186.61-164.75-36.07-54.66-62.72-126-72.7-194.67-3.83-26.27-3.26-103.95.96-130.41 16.3-104.33 62.91-195.63 136.94-267.74 78.83-77.1 174.15-121.21 287.3-132.91 17.46-1.73 92.83.57 111.24 3.45z"/><path d="M678.92 249.58l-35.1 35.1-15.92-15.92c-11.32-11.32-17.07-15.73-20.52-15.73-3.83 0-17.07 12.28-60.03 55.24-56.19 56.39-59.46 60.41-52.74 67.13 6.71 6.71 10.93 3.45 62.33-47.95l50.44-50.44 10.93 11.12 11.12 10.93-58.5 58.5-58.5 58.5-93.21-93.02c-91.68-91.1-93.4-92.83-104.33-96.09-13.04-3.64-25.89-2.69-36.82 2.68-8.63 4.6-34.9 31.07-40.08 40.66-5.18 9.78-4.99 32.8.57 43.15 2.3 4.41 42.39 46.03 94.36 97.81 49.68 49.49 90.34 90.92 90.34 92.07 0 .96-35.29 37.4-78.63 80.55-83.81 83.81-83.24 83.04-74.41 92.44l4.22 4.6-16.69 16.69c-18.6 18.6-19.95 22.63-11.51 31.46l5.18 5.37-10.55 11.12c-5.75 5.95-13.81 14.58-18.03 19.18l-7.48 8.06 7.09 7.1 7.1 7.29 18.6-18.6 18.79-18.6 6.33 5.75c9.59 8.63 12.66 7.67 31.07-11.7 15.15-16.11 16.5-17.07 19.95-14.38 2.11 1.53 5.18 2.88 6.71 2.88 1.73 0 39.12-36.06 83.24-79.98l80.36-80.17L577.26 656l82.85 83.81 56.77 18.41c31.07 10.16 58.11 18.41 59.84 18.41 1.73 0 4.6-2.11 6.33-4.6 2.88-4.6 2.11-7.29-16.49-63.29-10.74-32.22-20.52-59.26-21.87-60.03-1.34-.96-38.55-37.97-82.66-82.66l-80.36-81.13 101.07-101.07c62.91-62.91 101.07-102.61 101.07-104.91 0-2.11-12.47-16.11-30.11-33.95-23.21-23.21-31.26-30.3-35.1-30.3-3.63-.02-12.83 7.85-39.68 34.89zm59.26 8.63c10.36 10.36 18.79 19.56 18.79 20.71 0 1.15-5.18 6.71-11.7 12.28l-11.7 10.36-19.37-19.37-19.56-19.56 11.51-11.51c6.33-6.33 11.89-11.51 12.47-11.51.38 0 9.4 8.44 19.56 18.6zm-430.95-12.66c4.99 1.34 11.89 6.33 20.52 14.77l13.23 12.66-29.35 29.34-29.34 29.34-13.04-13.04c-14.58-14.58-18.03-22.44-14.96-34.52 3.26-11.7 33.95-39.89 44.3-40.66.58 0 4.42.96 8.64 2.11zm401.8 83.24l-10.55 10.55-20.14-20.14-19.95-20.14 10.36-10.55 10.55-10.55 20.14 20.14 20.14 20.14-10.55 10.55zM496.14 430.44c0 2.49-17.65 20.14-20.14 20.14-.96 0-33.56-31.65-72.31-70.39l-70.58-70.58 10.93-10.93 11.12-11.12 70.39 70.39c38.94 38.73 70.59 71.34 70.59 72.49zm170.31-94.17l17.65 17.45-57.92 57.92c-32.03 32.03-58.88 58.11-60.03 58.11-1.15 0-10.55-8.63-21.1-19.18l-19.18-19.17 58.5-58.5c48.72-48.71 58.88-57.92 61.37-56.19 1.53 1.34 10.93 9.97 20.71 19.56zm-274.84 59.07l70.2 71.35-11.51 11.51-11.5 11.31-70.77-71.73-70.96-71.73 10.74-11.12c5.95-5.94 11.32-10.93 12.08-10.93.76 0 32.98 32.02 71.72 71.34zm50.83 200.04c-60.6 60.61-111.24 110.28-112.2 110.28-1.15 0-10.55-8.63-21.1-19.18l-19.17-19.18L401.2 556.06l111.24-111.24 20.14 20.14 20.14 20.14-110.28 110.28zm202.72-17.84c42.58 42.58 77.29 78.25 77.29 79.21 0 3.45-20.91 23.01-22.63 21.1-.77-1.15-36.06-36.63-78.06-79.21l-76.52-77.1 10.36-10.55c5.75-5.75 10.93-10.55 11.51-10.55s35.66 34.72 78.05 77.1zm-36.25 36.83c42.39 42.77 77.1 78.44 77.1 79.21 0 .96-4.6 6.14-10.17 11.7l-9.97 9.97-78.63-78.63-78.63-78.63 10.55-10.55c5.75-5.75 10.93-10.55 11.7-10.55.57-.01 35.67 34.9 78.05 77.48zM747 714.67c6.33 19.37 11.32 35.1 10.93 35.1-.77 0-60.6-20.52-67.7-23.21-4.79-1.92-4.6-2.3 18.79-25.7 13.23-13.23 24.36-23.21 25.12-22.44.78.77 6.53 17.07 12.86 36.25zm-450.9-8.63l7.86 8.25-10.35 11.51-10.36 11.5-9.01-9.01-9.21-9.21 10.55-10.55c5.75-5.75 10.93-10.55 11.51-10.55.57.01 4.6 3.65 9.01 8.06z"/></svg>