<?xml version="1.0" encoding="utf-8"?>
<!-- Svg Vector Icons : http://www.onlinewebfonts.com/icon -->
<!DOCTYPE svg PUBLIC "-//W3C//DTD SVG 1.1//EN" "http://www.w3.org/Graphics/SVG/1.1/DTD/svg11.dtd">
<svg version="1.1" xmlns="http://www.w3.org/2000/svg" xmlns:xlink="http://www.w3.org/1999/xlink" x="0px" y="0px" viewBox="0 0 1000 1000" enable-background="new 0 0 1000 1000" xml:space="preserve">
<metadata> Svg Vector Icons : http://www.onlinewebfonts.com/icon </metadata>
<g><g transform="translate(0.000000,512.000000) scale(0.100000,-0.100000)"><path d="M4545.3,5000.7c-944.8-84.3-1935.7-494.5-2665.8-1105.8C932.7,3103.4,325.2,2016.7,145.1,797.8C49.2,144.3,108.6-643.4,300.3-1275.8c235.7-781.9,619-1435.4,1186.3-2018.1c433.1-444.6,806.8-716.8,1360.7-990.8c488.7-241.5,977.4-389.1,1552.4-471.5c226.1-32.6,981.2-32.6,1207.4,0c891.2,126.5,1667.3,444.6,2363,965.9c228.1,170.6,649.7,578.8,837.5,810.7c477.2,586.4,849,1364.6,994.7,2079.4c82.4,406.3,97.7,563.4,97.7,1015.7c0,448.4-15.3,605.6-97.7,1011.9c-139.9,703.4-511.7,1483.4-979.3,2064.1c-201.2,249.1-615.2,651.6-858.6,835.6C6977.4,4766.9,5775.7,5109.9,4545.3,5000.7z M5543.8,4782.2c1385.6-161,2616-923.8,3394.1-2098.6c360.3-546.2,628.6-1261,726.3-1945.2c32.6-228.1,32.6-1017.7,0-1245.7c-120.7-839.4-469.5-1655.9-981.3-2299.8c-747.4-939.1-1847.5-1563.8-3056.8-1738.3c-228.1-32.6-1017.7-32.6-1245.7,0c-684.2,97.8-1397.1,364.1-1945.2,726.4C1099.5-2937.4,308-1473.2,308,115.6c0,1057.9,322,2002.7,985.1,2884.3c147.6,197.4,628.6,678.4,826,826c718.7,540.5,1479.5,852.8,2319,956.3C4727.4,4816.7,5250.6,4816.7,5543.8,4782.2z"/><path d="M5227.6,2344.4c-7.7-5.7-13.4-36.4-13.4-63.2c0-76.7-63.2-93.9-383.3-99.7c-241.5-5.7-287.5-11.5-356.5-47.9c-101.6-53.7-189.7-141.8-243.4-243.4c-40.3-74.7-42.2-97.7-42.2-605.6c0-580.7,9.6-644,126.5-803c53.7-74.7,55.6-88.1,55.6-274.1V10.2L4173.5-99.1l-195.5-107.3l-9.6,720.6c-9.6,691.8-11.5,726.4-53.7,827.9C3788.3,1656.4,3543,1873,3244,1934.3c-412,86.2-824.1-128.4-1015.7-528.9l-70.9-149.5l-9.6-931.4l-9.6-933.3l-124.6-82.4c-241.5-162.9-293.2-325.8-283.6-889.2l5.7-345h3267.6H8271l5.7,373.7c1.9,212.7-3.8,415.9-15.3,471.4c-32.6,159.1-124.6,293.2-268.3,389l-124.6,82.4l-9.6,933.3c-9.6,921.8-9.6,933.3-53.7,1042.6c-99.7,245.3-339.2,471.4-575,544.3c-157.1,49.8-438.9,46-582.6-7.7c-312.4-116.9-559.6-412-609.4-734c-9.6-69-19.2-402.5-19.2-743.6c0-356.5-7.7-617.1-17.3-613.3c-9.6,3.8-95.8,49.8-191.7,101.6l-174.4,95.8v197.4c0,185.9,1.9,199.3,55.6,274.1c118.8,162.9,126.5,214.7,126.5,870.1v594.1l-55.6,120.7c-59.4,126.5-149.5,220.4-253,264.5C5444.2,2357.9,5250.6,2367.5,5227.6,2344.4z M5517,2091.5c76.7-78.6,99.7-185.9,99.7-481c0-233.8-1.9-253-32.6-239.6c-19.2,9.6-180.2,21.1-360.3,26.8c-354.6,13.4-381.4,21.1-461.9,126.5c-65.2,86.2-143.7,92-193.6,15.3c-40.2-67.1-141.8-178.2-162.9-178.2c-30.7,0-17.3,402.5,15.3,469.5c55.6,118.8,97.8,132.2,438.9,143.7c325.8,11.5,408.2,32.6,496.4,132.2C5405.8,2162.4,5449.9,2156.6,5517,2091.5z M3360.9,1681.4c141.8-70.9,272.1-199.3,335.4-335.4l51.7-109.2l5.7-785.8l5.7-787.7l-70.9-32.6c-69-34.5-70.9-32.6-134.2,15.3c-36.4,26.8-69,69-76.7,93.9c-23,95.8,5.8,421.6,46,529c36.4,92,40.2,145.6,42.2,412c0,168.7-7.7,316.2-15.3,329.6c-7.7,13.4-51.8,36.4-97.8,51.7c-44.1,17.3-107.3,47.9-138,70.9c-65.1,46-143.7,42.2-283.6-9.6c-65.2-24.9-116.9-28.8-241.5-19.2c-145.7,11.5-161,9.6-199.3-28.8c-38.3-38.3-40.2-59.4-40.2-360.3c1.9-283.6,5.7-333.5,42.2-427.4c34.5-86.2,42.1-145.7,44.1-329.6c0-212.7-1.9-226.1-47.9-276c-47.9-51.7-205.1-161-233.8-161c-23,0-19.2,1483.3,5.7,1629c24.9,161,70.9,262.6,162.9,364.1c155.2,170.6,306.6,231.9,555.8,224.2C3221,1735,3270.9,1723.5,3360.9,1681.4z M7249.5,1683.3c210.8-97.7,362.2-297.1,398.6-525.1c21.1-128.4,26.8-1636.7,5.7-1636.7c-7.7,0-70.9,34.5-143.7,76.7c-84.3,51.7-134.2,93.9-141.8,122.6c-23,95.8,5.7,421.6,46,529c34.5,90.1,40.3,145.6,42.2,404.4c0,329.6-1.9,335.4-130.3,377.6c-34.5,11.5-88.2,38.3-116.9,61.3c-69,47.9-187.8,49.8-251,5.7c-38.3-26.8-84.3-32.6-247.2-28.7c-283.6,3.8-270.2,23-270.2-396.7c1.9-295.1,5.7-350.7,42.2-442.7c46-122.7,65.1-362.2,36.4-460c-11.5-38.3-46-92-76.7-122.7l-55.6-53.7l-78.6,42.2l-80.5,40.2l5.8,770.4l5.7,770.4l51.7,111.2c90.1,191.7,222.3,316.2,406.3,381.4C6847,1763.8,7105.8,1750.3,7249.5,1683.3z M4712.1,1286.5c99.7-70.9,245.3-97.7,515.5-97.7c377.5,0,402.5-19.2,385.2-306.6c-15.3-253-118.8-414-341.1-521.3c-124.6-61.3-412-61.3-536.6,0C4599,428,4512.7,510.4,4453.3,629.2c-44.1,92-53.7,138-59.4,300.9l-7.7,191.7l67.1,36.4c36.4,19.2,95.8,63.3,130.3,99.7c34.5,36.4,67.1,65.2,70.9,65.2C4658.4,1323,4685.2,1307.6,4712.1,1286.5z M3288.1,907.1l92-49.8l-11.5-251.1c-5.8-164.8-19.2-274.1-38.3-318.1c-120.8-276-362.2-306.6-506-63.2c-51.8,88.1-53.7,103.5-59.4,385.2l-7.7,291.3l141.8,1.9c76.7,0,170.6,11.5,207,24.9c36.4,15.3,72.8,26.8,78.6,28.8C3192.3,956.9,3238.3,935.8,3288.1,907.1z M7159.4,878.3l88.2-44.1l-5.7-268.3c-5.8-235.7-11.5-279.8-49.8-358.4c-53.7-107.3-130.3-168.6-230-182.1c-103.5-13.4-191.7,51.7-262.6,195.5c-53.7,107.3-57.5,130.3-63.2,377.6l-7.7,264.5l139.9,1.9c78.6,0,172.5,11.5,208.9,24.9C7069.3,924.3,7061.7,926.2,7159.4,878.3z M4744.6,148.2c70.9-28.7,139.9-38.3,258.7-38.3c157.2,0,185.9,7.7,389,92c28.7,11.5,32.6,0,32.6-124.6c0-118.8-9.6-155.3-61.3-256.8c-57.5-105.4-320.1-394.8-360.3-394.8c-34.5,0-302.8,310.5-360.3,415.9c-51.7,97.7-61.3,136.1-61.3,245.3c0,115,3.8,126.5,34.5,115C4633.5,194.1,4692.9,169.2,4744.6,148.2z M2989.1-137.4c61.3-17.3,143.7-5.7,233.8,30.7c24.9,11.5,32.6-3.8,42.2-90.1c11.5-113.1,63.2-231.9,126.5-289.4l40.3-36.4l-78.6-84.3c-95.8-103.5-164.8-249.2-182.1-383.3c-13.4-115-38.3-132.2-168.6-113.1c-166.7,24.9-335.4,159.1-404.4,323.9c-49.8,118.8-38.3,153.3,82.4,276c115,115,176.3,237.6,176.3,356.5c0,46,5.7,53.7,34.5,42.2C2908.7-112.5,2952.7-127.8,2989.1-137.4z M6875.8-173.8c55.6-17.2,157.2-3.8,241.5,30.7c26.8,11.5,32.6,1.9,32.6-55.6c0-143.7,88.1-277.9,241.5-368l78.6-46l-15.3-88.2c-42.2-222.3-274.1-410.1-504.1-410.1c-84.3,0-99.6,17.2-115,124.6c-15.3,126.5-103.5,308.5-189.7,396.7l-70.9,70.9l65.2,95.8c36.4,51.7,74.7,139.9,88.2,193.6c19.2,78.6,30.7,95.8,55.6,86.3C6801-150.8,6841.3-164.2,6875.8-173.8z M4246.4-459.4c-57.5-201.2-47.9-256.8,47.9-325.8c80.5-57.5,153.3-47.9,335.4,42.2l161,80.5l49.8-46l47.9-44.1v-486.8v-484.9H4438h-448.5l-5.7,245.3l-5.7,243.4l-99.7,5.7l-101.6,5.7v-249.1v-251.1h-201.2h-201.2v369.9c0,207,9.6,400.5,21.1,442.7c36.4,132.2,166.7,239.6,544.3,450.4c189.7,105.4,346.9,187.8,350.7,185.9C4294.3-279.2,4273.2-361.6,4246.4-459.4z M6082.4-470.9c408.2-228.1,438.9-251.1,500.2-375.6c47.9-97.7,49.8-107.3,49.8-488.7v-389h-201.2h-201.2v251.1v249.1l-99.7-5.7l-101.6-5.7l-5.7-243.4l-5.7-245.3h-448.5h-450.4v484.9v486.8l47.9,44.1c51.7,49.8,65.1,46,281.7-61.3c124.6-61.3,216.6-69,283.6-21.1c111.2,76.7,120.7,139.9,47.9,350.7c-26.8,76.7-47.9,143.7-47.9,147.6C5731.6-277.3,5775.7-298.4,6082.4-470.9z M4576-424.9l61.3-84.3l-105.4-51.7c-57.5-28.8-103.5-42.2-103.5-30.7c0,42.2,65.2,264.5,76.7,256.8C4510.8-338.6,4543.4-378.9,4576-424.9z M5609-606.9c-3.8-3.8-55.6,15.3-115,44.1L5384.7-513l51.7,69c28.8,40.2,61.3,82.4,72.8,97.7c15.4,19.2,30.7-9.6,63.3-115C5595.6-538,5612.8-605,5609-606.9z M2404.6-831.2c95.8-277.9,364.1-471.5,657.4-471.5h101.6v-210.8v-210.8h-421.6h-421.6v105.4v105.4h-105.4h-105.4v-105.4v-105.4h-86.2H1937v302.8c0,293.2,1.9,306.6,53.7,408.2c44.1,88.2,74.8,116.9,195.5,193.6c78.6,49.8,153.3,90.1,162.9,90.1C2360.5-727.7,2385.4-773.7,2404.6-831.2z M7811-815.8c93.9-57.5,164.8-116.9,197.4-166.7c49.8-74.8,51.8-86.2,57.5-410.1l7.7-331.6h-88.2h-88.2v105.4v105.4h-105.4h-105.4v-105.4v-105.4h-421.6h-421.6v208.9v207l149.5,9.6c180.2,9.6,325.8,70.9,452.3,187.8c86.3,80.5,203.1,279.8,203.1,348.8c0,19.2,3.8,34.5,9.6,34.5C7661.5-727.7,7730.5-767.9,7811-815.8z"/><path d="M5333-1038.2c-57.5-57.5-3.8-168.6,80.5-168.6c49.8,0,107.3,53.7,107.3,101.6C5520.8-1030.5,5388.6-982.6,5333-1038.2z"/><path d="M5338.8-1455.9c-53.7-59.4-19.2-141.8,61.3-149.5c47.9-5.8,67.1,3.8,93.9,42.1c28.8,46,28.8,53.7,0,97.8C5455.7-1406.1,5386.7-1402.3,5338.8-1455.9z"/></g></g>
</svg>