<?xml version="1.0" encoding="utf-8"?>
<!-- Svg Vector Icons : http://www.onlinewebfonts.com/icon -->
<!DOCTYPE svg PUBLIC "-//W3C//DTD SVG 1.1//EN" "http://www.w3.org/Graphics/SVG/1.1/DTD/svg11.dtd">
<svg version="1.1" xmlns="http://www.w3.org/2000/svg" xmlns:xlink="http://www.w3.org/1999/xlink" x="0px" y="0px" viewBox="0 0 1000 1000" enable-background="new 0 0 1000 1000" xml:space="preserve">
<metadata> Svg Vector Icons : http://www.onlinewebfonts.com/icon </metadata>
<g><g transform="translate(0.000000,512.000000) scale(0.100000,-0.100000)"><path d="M4541.4,5004.3c-945.5-84.4-1937.1-494.8-2667.8-1106.6c-241.7-201.4-611.8-586.9-784.4-815.1C571.3,2392.1,251,1607.7,124.4,719.7c-32.6-226.3-32.6-982,0-1208.3c134.3-935.9,492.9-1779.8,1052.9-2474.1c201.4-249.3,615.6-652.1,859.2-836.2c684.7-512.1,1472.9-834.3,2359-960.9c226.3-32.6,982-32.6,1208.3,0c891.8,126.6,1668.6,445,2364.8,966.6c228.2,170.7,650.2,579.2,838.1,811.3c475.6,585,851.6,1371.3,995.4,2080.9c82.5,406.6,97.8,565.8,97.8,1016.5c0,448.8-15.3,606-97.8,1012.7c-140,703.9-512.1,1484.5-980.1,2065.6c-201.4,249.3-615.6,652.1-859.2,836.2C6975.2,4770.3,5772.7,5113.6,4541.4,5004.3z M5699.8,4768.4c1022.2-163,1946.7-638.7,2658.2-1367.5c370.2-377.8,621.4-732.6,859.2-1214c303-611.8,452.6-1210.2,475.6-1910.2c17.2-550.4-42.2-1026.1-195.6-1528.6c-312.6-1033.8-982-1935.2-1889.1-2543.1c-820.9-550.4-1760.6-815.1-2769.4-782.5c-700,23-1298.4,172.6-1910.2,475.6c-772.9,383.6-1390.5,928.3-1866.1,1647.5C701.7-1907.8,435.2-1194.4,335.4-507.7C297.1-245,302.8,531.8,345,796.4c163,1043.3,629.1,1956.3,1369.4,2677.4c788.3,771,1741.5,1212.1,2873,1329.1C4762,4820.2,5515.7,4797.2,5699.8,4768.4z"/><path d="M2389.5,2112.1c-55.6-55.6-57.5-63.3-51.8-207.1l5.7-149.6l101.6-5.8l99.7-5.8v105.5v107.4h107.4h105.5l-5.8,101.7l-5.7,99.7l-149.6,5.8C2452.8,2169.6,2445.1,2167.7,2389.5,2112.1z"/><path d="M2961,2156.2c-7.7-7.7-13.4-55.6-13.4-107.4v-92.1h212.9h211l-5.8,101.7l-5.8,99.7l-193.7,5.8C3060.8,2165.8,2968.7,2163.9,2961,2156.2z"/><path d="M3574.8,2156.2c-7.7-7.7-13.4-55.6-13.4-107.4v-92.1h212.9h211l-5.8,101.7l-5.8,99.7l-193.7,5.8C3674.5,2165.8,3582.4,2163.9,3574.8,2156.2z"/><path d="M4188.5,2156.2c-7.7-7.7-13.4-55.6-13.4-107.4v-92.1H4388h211l-5.8,101.7l-5.7,99.7l-193.7,5.8C4288.2,2165.8,4196.2,2163.9,4188.5,2156.2z"/><path d="M4802.2,2156.2c-7.7-7.7-13.4-55.6-13.4-107.4v-92.1h212.9h211l-5.8,101.7l-5.8,99.7l-193.7,5.8C4902,2165.8,4809.9,2163.9,4802.2,2156.2z"/><path d="M5415.9,2156.2c-7.7-7.7-13.4-55.6-13.4-107.4v-92.1h212.9h211l-5.8,101.7l-5.8,99.7l-193.7,5.8C5515.7,2165.8,5423.6,2163.9,5415.9,2156.2z"/><path d="M6029.7,2156.2c-7.7-7.7-13.4-55.6-13.4-107.4v-92.1h212.9h211l-5.8,101.7l-5.8,99.7l-193.7,5.8C6129.4,2165.8,6037.3,2163.9,6029.7,2156.2z"/><path d="M6643.4,2156.2c-7.7-7.7-13.4-55.6-13.4-107.4v-92.1h212.9h211l-5.8,101.7l-5.8,99.7l-193.7,5.8C6743.1,2165.8,6651.1,2163.9,6643.4,2156.2z"/><path d="M7257.1,2154.3c-7.7-5.8-13.4-53.7-13.4-105.5v-92.1h105.5h105.5v-107.4v-105.5l101.6,5.8l99.7,5.8l5.8,149.6c5.7,143.8,3.8,151.5-51.8,205.2c-51.8,53.7-67.1,57.5-199.4,57.5C7333.8,2167.7,7262.9,2162,7257.1,2154.3z"/><path d="M2341.6,1529.1c-5.7-15.4-5.7-107.4-3.8-207.1l5.7-180.3l101.6-5.8l99.7-5.8v211V1554h-95.9C2385.7,1554,2349.2,1544.4,2341.6,1529.1z"/><path d="M5648,1521.4C5617.3,1485,4226.9-887.5,4192.3-966.1c-40.3-84.4,49.9-172.6,132.3-128.5c36.5,19.2,1474.9,2458.8,1494.1,2533.6C5841.7,1527.1,5709.4,1590.4,5648,1521.4z"/><path d="M7454.7,1343v-212.9l101.6,5.8l99.7,5.8V1343v201.4l-99.7,5.8l-101.6,5.7V1343z"/><path d="M3407.9,702.4c-427.7-431.5-460.3-466-460.3-500.6c0-28.8,865-888,907.2-899.5c49.9-11.5,132.3,69.1,117,117c-7.7,19.2-184.1,207.1-393.2,418.1l-381.7,383.6l375.9,374c205.2,205.2,383.6,389.3,393.2,408.5c15.3,24.9,11.5,47.9-11.5,82.5C3893.1,1181.9,3858.6,1157,3407.9,702.4z"/><path d="M6045,1086c-23-34.5-26.9-57.5-11.5-82.5c9.6-19.2,187.9-203.3,393.2-408.5l375.9-374l-393.2-393.2c-216.7-218.6-393.2-406.6-393.2-418.1c0-44.1,90.1-117,130.4-107.4c44.1,13.4,874.6,845.8,893.8,897.6c9.6,30.7-72.9,122.8-433.5,485.2C6137.1,1155.1,6104.5,1178.1,6045,1086z"/><path d="M2341.6,915.3c-5.7-15.4-5.7-107.4-3.8-207.1l5.7-180.3l101.6-5.7l99.7-5.8v211v212.9h-95.9C2385.7,940.3,2349.2,930.7,2341.6,915.3z"/><path d="M7454.7,729.3V516.4l101.6,5.8l99.7,5.7v201.4v201.4l-99.7,5.7l-101.6,5.8V729.3z"/><path d="M2341.6,301.6c-5.7-15.4-5.7-107.4-3.8-207.2l5.7-180.3l101.6-5.8l99.7-5.8v211v212.9h-95.9C2385.7,326.5,2349.2,317,2341.6,301.6z"/><path d="M7454.7,115.6V-97.3l101.6,5.8l99.7,5.8v201.4V317l-99.7,5.8l-101.6,5.7V115.6z"/><path d="M2341.6-312.1c-5.7-15.4-5.7-107.4-3.8-207.1l5.7-180.3l101.6-5.7l99.7-5.8v211v212.9h-95.9C2385.7-287.2,2349.2-296.8,2341.6-312.1z"/><path d="M7454.7-498.2v-212.9l101.6,5.8l99.7,5.7v201.4v201.4l-99.7,5.8l-101.6,5.7V-498.2z"/><path d="M2341.6-925.8c-5.7-15.4-5.7-107.4-3.8-207.1l5.7-180.3l101.6-5.7l99.7-5.8v211v212.9h-95.9C2385.7-900.9,2349.2-910.5,2341.6-925.8z"/><path d="M7454.7-1111.9v-212.9l101.6,5.8l99.7,5.7v201.4v201.4l-99.7,5.8l-101.6,5.8V-1111.9z"/><path d="M2347.3-1526.2c-28.8-28.8-11.5-94,38.4-145.8c47.9-49.9,61.4-53.7,211-53.7h161.1L2752-1624l-5.7,99.7l-193.7,5.8C2447-1516.6,2355-1518.5,2347.3-1526.2z"/><path d="M2961-1526.2c-7.7-7.7-13.4-55.6-13.4-107.4v-92.1h212.9h211l-5.8,101.6l-5.8,99.7l-193.7,5.8C3060.8-1516.6,2968.7-1518.5,2961-1526.2z"/><path d="M3574.8-1526.2c-7.7-7.7-13.4-55.6-13.4-107.4v-92.1h212.9h211l-5.8,101.6l-5.8,99.7l-193.7,5.8C3674.5-1516.6,3582.4-1518.5,3574.8-1526.2z"/><path d="M4188.5-1526.2c-7.7-7.7-13.4-55.6-13.4-107.4v-92.1H4388h211l-5.8,101.6l-5.7,99.7l-193.7,5.8C4288.2-1516.6,4196.2-1518.5,4188.5-1526.2z"/><path d="M4802.2-1526.2c-7.7-7.7-13.4-55.6-13.4-107.4v-92.1h212.9h211l-5.8,101.6l-5.8,99.7l-193.7,5.8C4902-1516.6,4809.9-1518.5,4802.2-1526.2z"/><path d="M5415.9-1526.2c-7.7-7.7-13.4-55.6-13.4-107.4v-92.1h212.9h211l-5.8,101.6l-5.8,99.7l-193.7,5.8C5515.7-1516.6,5423.6-1518.5,5415.9-1526.2z"/><path d="M6029.7-1526.2c-7.7-7.7-13.4-55.6-13.4-107.4v-92.1h212.9h211l-5.8,101.6l-5.8,99.7l-193.7,5.8C6129.4-1516.6,6037.3-1518.5,6029.7-1526.2z"/><path d="M6643.4-1526.2c-7.7-7.7-13.4-55.6-13.4-107.4v-92.1h212.9h211l-5.8,101.6l-5.8,99.7l-193.7,5.8C6743.1-1516.6,6651.1-1518.5,6643.4-1526.2z"/><path d="M7257.1-1526.2c-7.7-7.7-13.4-55.6-13.4-107.4v-92.1h159.2c151.5,0,163,3.8,212.9,55.6c34.5,36.4,51.8,71,46,99.7c-5.8,44.1-11.5,46-199.5,51.8C7356.9-1516.6,7264.8-1518.5,7257.1-1526.2z"/></g></g>
</svg>